HIERARCHY
ROOT hip
{
	OFFSET 0.000000 0.000000 0.000000 
	CHANNELS 6 Xposition Yposition Zposition Zrotation Xrotation Yrotation
	JOINT abdomen
	{
		OFFSET 0.000000 3.402643 0.000000 
		CHANNELS 3 Zrotation Xrotation Yrotation
		JOINT chest
		{
			OFFSET 0.000000 8.438565 -0.680529 
			CHANNELS 3 Zrotation Xrotation Yrotation
			JOINT neck
			{
				OFFSET 0.000000 10.207942 -0.272212 
				CHANNELS 3 Zrotation Xrotation Yrotation
				JOINT head
				{
					OFFSET 0.000000 3.130431 0.000000 
					CHANNELS 3 Zrotation Xrotation Yrotation
					End Site
					{
						OFFSET 0.000000 3.130435 0.000000 
					}
				}
			}
			JOINT lCollar
			{
				OFFSET 3.470700 6.669187 -0.816635 
				CHANNELS 3 Zrotation Xrotation Yrotation
				JOINT lShldr
				{
					OFFSET 3.198488 0.000000 0.000000 
					CHANNELS 3 Zrotation Xrotation Yrotation
					JOINT lForeArm
					{
						OFFSET 10.139888 0.000000 0.000000 
						CHANNELS 3 Zrotation Xrotation Yrotation
						JOINT lHand
						{
							OFFSET 8.370511 0.000000 0.000000 
							CHANNELS 3 Zrotation Xrotation Yrotation
							End Site
							{
								OFFSET 4.083176 0.000000 0.000000 
							}
						}
					}
				}
			}
			JOINT rCollar
			{
				OFFSET -3.470700 6.669187 -0.816635 
				CHANNELS 3 Zrotation Xrotation Yrotation
				JOINT rShldr
				{
					OFFSET -3.198488 0.000000 0.000000 
					CHANNELS 3 Zrotation Xrotation Yrotation
					JOINT rForeArm
					{
						OFFSET -10.139888 0.000000 0.000000 
						CHANNELS 3 Zrotation Xrotation Yrotation
						JOINT rHand
						{
							OFFSET -8.370511 0.000000 0.000000 
							CHANNELS 3 Zrotation Xrotation Yrotation
							End Site
							{
								OFFSET -4.083176 0.000000 0.000000 
							}
						}
					}
				}
			}
		}
	}
	JOINT lThigh
	{
		OFFSET 5.308129 -1.633274 1.361059 
		CHANNELS 3 Zrotation Xrotation Yrotation
		JOINT lShin
		{
			OFFSET -2.041588 -20.007561 0.000000 
			CHANNELS 3 Zrotation Xrotation Yrotation
			JOINT lFoot
			{
				OFFSET 0.000000 -19.190928 -1.224953 
				CHANNELS 3 Zrotation Xrotation Yrotation
				End Site
				{
					OFFSET 0.000000 -2.449906 4.627600 
				}
			}
		}
	}
	JOINT rThigh
	{
		OFFSET -5.308129 -1.633274 1.361059 
		CHANNELS 3 Zrotation Xrotation Yrotation
		JOINT rShin
		{
			OFFSET 2.041588 -20.007561 0.000000 
			CHANNELS 3 Zrotation Xrotation Yrotation
			JOINT rFoot
			{
				OFFSET 0.000000 -19.190928 -1.224953 
				CHANNELS 3 Zrotation Xrotation Yrotation
				End Site
				{
					OFFSET 0.000000 -2.449906 4.627600 
				}
			}
		}
	}
}
MOTION
Frames: 18
Frame Time: 0.033333
-0.000280 45.072887 -1.352565 5.582801 31.158541 -1.429638 -0.000000 -0.000002 -0.000000 4.543640 31.404099 -8.767003 -13.873049 48.613438 12.636380 -0.954937 -15.993991 -0.145955 -2.000757 -0.069240 1.990978 -78.975914 -8.899673 -4.418534 3.062418 9.994948 -33.780975 -15.065319 11.303737 -24.939585 1.990970 -0.069577 -2.000746 76.977516 -1.352799 -5.157691 -11.164163 9.843734 51.119705 15.158122 -10.257080 20.120274 1.910991 -33.059677 6.927793 -1.929192 -1.149952 1.426818 -4.023404 8.804339 2.353620 -11.148861 -28.286612 2.654581 2.263417 -0.506578 1.669259 -2.152096 -3.624695 -19.162401 
0.036166 45.106194 -1.412475 5.490313 30.343975 -1.461630 -0.000000 -0.000002 -0.000000 4.574127 31.559042 -8.774643 -13.454737 46.998539 12.297477 -0.954937 -15.993991 -0.145955 -2.000757 -0.069240 1.990978 -79.176285 -9.338562 -4.423981 3.090244 9.982033 -34.067699 -15.400427 11.209982 -24.481106 1.990970 -0.069577 -2.000746 76.760010 -1.448849 -5.304434 -11.331977 9.649436 52.110970 15.290401 -10.410831 19.394232 1.968231 -32.500729 7.157314 -1.950619 -1.034470 1.444005 -3.907287 8.624657 2.154265 -11.072678 -27.769501 2.683424 2.298662 -0.253109 1.653734 -2.159028 -3.850412 -18.973534 
0.081880 45.148434 -1.487864 5.359090 29.384754 -1.492812 -0.000000 -0.000002 -0.000000 4.616220 31.713564 -8.787849 -12.976366 44.971874 11.904757 -0.954937 -15.993991 -0.145955 -2.000757 -0.069240 1.990978 -79.379898 -9.757611 -4.399708 3.118556 9.962914 -34.433037 -15.778358 11.065555 -23.749098 1.990970 -0.069577 -2.000746 76.524185 -1.546799 -5.382826 -11.483577 9.467917 53.023476 15.484989 -10.605641 18.491072 2.008133 -31.724277 7.408843 -1.967682 -0.916199 1.451457 -3.757659 8.512581 1.933384 -10.980238 -27.180368 2.689570 2.376693 0.126414 1.629275 -2.190896 -4.099683 -18.756802 
0.135415 45.283279 -1.576477 5.165067 28.203573 -1.508020 -0.000000 -0.000002 -0.000000 4.458084 30.558710 -8.968543 -12.975344 43.614952 12.232712 -0.954937 -15.993991 -0.145955 -2.000757 -0.069240 1.990978 -79.553596 -10.158551 -4.216610 3.030981 10.025203 -33.367065 -15.994108 11.047220 -23.088564 1.990970 -0.069577 -2.000746 76.278198 -1.059862 -5.323180 -11.390999 9.579951 52.500916 15.696690 -10.769553 17.455748 2.100137 -30.691164 7.770667 -1.975043 -0.642991 1.475076 -3.592120 8.062050 1.532165 -10.790676 -26.131151 2.697225 2.439119 0.273558 1.630858 -2.195535 -4.451311 -18.491728 
0.195320 45.528503 -1.676065 4.870423 26.557646 -1.498168 -0.000000 -0.000002 -0.000000 4.082595 28.015766 -9.341450 -13.291867 42.583416 13.211384 -0.954937 -15.993991 -0.145955 -2.000757 -0.069240 1.990978 -79.684532 -10.552591 -3.923886 2.759544 10.164971 -30.519798 -16.016987 11.182746 -22.480675 1.990970 -0.069577 -2.000746 76.069572 0.058369 -5.019534 -11.019190 10.020944 50.235691 15.951377 -10.821631 16.233955 2.301988 -29.081442 8.375179 -2.020635 -0.177194 1.524853 -3.430282 7.181834 0.904119 -10.465569 -24.682892 2.749089 2.502682 0.826651 1.608766 -2.285085 -5.169766 -18.105659 
0.260147 45.793995 -1.784370 4.474406 24.455496 -1.494141 -0.000000 -0.000002 -0.000000 3.685799 25.364204 -9.744733 -13.328990 40.748257 14.062839 -0.954937 -15.993991 -0.145955 -2.000757 -0.069240 1.990978 -79.794640 -10.935359 -3.700090 2.456230 10.327601 -27.265804 -16.013842 11.330789 -21.673590 1.990970 -0.069577 -2.000746 75.898849 1.245379 -4.503020 -10.531766 10.559958 47.389915 16.327217 -10.801422 14.928686 2.674726 -27.509665 9.147623 -2.113095 1.350853 1.495831 -3.250635 5.736053 0.180015 -10.077059 -23.175718 2.729079 2.706375 2.233654 1.633124 -2.414286 -6.332896 -17.700420 
0.328446 46.064487 -1.899145 4.013698 22.011595 -1.496663 -0.000000 -0.000002 -0.000000 3.259269 22.642818 -10.162173 -13.060461 38.232716 14.759767 -0.954937 -15.993991 -0.145955 -2.000757 -0.069240 1.990978 -79.869194 -11.296415 -3.615046 2.090722 10.471717 -23.570671 -15.951046 11.492908 -20.817017 1.990970 -0.069577 -2.000746 75.776657 2.455000 -3.763224 -9.890281 11.188311 43.918301 16.787247 -10.678451 13.708707 3.189896 -25.850813 10.042485 -2.239157 3.488258 1.488738 -3.060686 3.977028 -0.643112 -9.634176 -21.244272 2.701408 2.871079 3.456153 1.642730 -2.550589 -7.463407 -17.180788 
0.398766 46.325596 -2.018134 3.507547 19.282877 -1.511158 -0.000000 -0.000002 -0.000000 2.825056 19.899561 -10.591166 -12.524796 35.216419 15.325771 -0.954937 -15.993991 -0.145955 -2.000757 -0.069240 1.990978 -79.917694 -11.646270 -3.699310 1.669169 10.617117 -19.306900 -15.788334 11.703511 -20.123352 1.990970 -0.069577 -2.000746 75.705551 3.686637 -2.769407 -9.078377 11.877770 39.721146 17.299772 -10.397309 12.751887 3.894605 -24.191349 11.035779 -2.415339 6.334766 1.379729 -2.859823 2.000393 -1.415536 -9.168084 -19.449623 2.660505 3.167064 5.623864 1.689179 -2.707276 -8.939471 -16.693121 
0.469659 46.564922 -2.139067 2.972236 16.375593 -1.560834 -0.000000 -0.000002 -0.000000 2.381885 17.193047 -11.055612 -11.770913 31.834576 15.833005 -0.954937 -15.993991 -0.145955 -2.000757 -0.069240 1.990978 -79.631218 -11.981491 -2.455877 1.422091 10.697439 -16.836393 -15.687231 11.830437 -19.772844 1.990970 -0.069577 -2.000746 75.689445 4.903626 -3.263912 -8.572831 12.256988 37.275146 17.599096 -10.165733 12.325393 4.642927 -22.256598 11.878205 -2.600487 9.024968 1.419327 -2.752095 -0.982214 -2.218573 -8.698597 -17.185886 2.587175 3.420606 7.235421 1.694903 -3.292084 -11.647630 -16.274366 
0.539676 46.772652 -2.259706 2.429129 13.367302 -1.635732 -0.000000 -0.000002 -0.000000 1.916740 14.523463 -11.505917 -10.821605 28.231516 16.260458 -0.954937 -15.993991 -0.145955 -2.000757 -0.069240 1.990978 -78.883797 -12.207022 0.059949 1.369836 10.710818 -16.439362 -16.115147 11.624274 -18.318293 1.990970 -0.069577 -2.000746 75.689240 5.996179 -4.624967 -8.305206 12.449882 35.960365 17.859871 -9.961431 11.632841 5.417307 -20.145477 12.703409 -2.772165 11.644114 1.330761 -2.609130 -2.585365 -2.909743 -8.236651 -14.960325 2.543824 3.717455 9.169957 1.709861 -3.377793 -12.835548 -15.718471 
0.607351 46.942329 -2.377751 1.866293 10.346169 -1.731776 -0.000000 -0.000002 -0.000000 1.457367 11.949371 -11.971731 -9.755631 24.536720 16.660585 -0.954937 -15.993991 -0.145955 -2.000757 -0.069240 1.990978 -78.027596 -12.295534 2.198899 1.305356 10.718271 -15.724041 -16.869278 11.214627 -15.707818 1.990970 -0.069577 -2.000746 75.694344 7.063147 -4.998969 -7.730827 12.810851 33.334213 18.299463 -9.614246 10.461067 6.199148 -17.972227 13.313951 -2.993321 14.099176 1.365939 -2.513670 -4.062409 -3.548604 -7.818834 -12.422058 2.477977 3.962764 10.530817 1.699834 -3.459149 -13.743671 -15.163440 
0.671269 47.070908 -2.491022 1.319588 7.400377 -1.859225 -0.000000 -0.000002 -0.000000 1.009978 9.510274 -12.422579 -8.598320 20.925623 17.035467 -0.954937 -15.993991 -0.145955 -2.000757 -0.069240 1.990978 -77.108261 -12.254767 4.047453 1.205190 10.748960 -14.791020 -17.795305 10.641159 -12.384220 1.990970 -0.069577 -2.000746 75.721481 7.980512 -4.693999 -6.968799 13.268348 29.817057 18.893284 -9.173911 8.973125 6.988888 -15.770814 13.788839 -3.198999 16.429596 1.351007 -2.430654 -5.519154 -4.006711 -7.440774 -10.335778 2.411985 4.321591 12.724822 1.699466 -3.622602 -15.094250 -14.667657 
0.729962 47.159492 -2.597227 0.803401 4.628450 -1.998286 -0.000000 -0.000002 -0.000000 0.580785 7.226198 -12.856259 -7.425076 17.488190 17.397781 -0.954937 -15.993991 -0.145955 -2.000757 -0.069240 1.990978 -76.169991 -12.111136 5.623603 1.100227 10.768320 -13.797694 -18.772625 9.952601 -8.785567 1.990970 -0.069577 -2.000746 75.734314 8.837394 -3.884071 -6.045812 13.717752 25.806402 19.542276 -8.726014 7.370953 7.672535 -13.597284 14.102866 -3.355687 18.446499 1.309163 -2.406070 -6.866512 -4.412050 -7.060990 -8.100331 2.369986 4.614555 14.306496 1.647778 -3.814369 -16.152670 -14.220381 
0.781983 47.212009 -2.694107 0.332254 2.099555 -2.150785 -0.000000 -0.000002 -0.000000 0.166696 5.175761 -13.286521 -6.291335 14.369693 17.747887 -0.954937 -15.993991 -0.145955 -2.000757 -0.069240 1.990978 -75.304314 -11.913721 7.007138 1.002469 10.787080 -12.844061 -19.660604 9.238025 -5.323139 1.990970 -0.069577 -2.000746 75.747047 9.616885 -2.832810 -5.098498 14.111198 21.762161 20.179989 -8.306150 5.823011 8.318536 -11.574042 14.270226 -3.517335 20.174299 1.314745 -2.384576 -7.951048 -4.707226 -6.940214 -5.587532 2.350684 4.794791 14.712012 1.610459 -3.642546 -16.550701 -13.696293 
0.825881 47.235401 -2.779428 -0.078125 -0.097679 -2.295056 -0.000000 -0.000002 -0.000000 -0.215214 3.359353 -13.678795 -5.256543 11.729182 18.082310 -0.954937 -15.993991 -0.145955 -2.000757 -0.069240 1.990978 -74.463516 -11.705276 8.268826 0.920840 10.805156 -12.029523 -20.377337 8.595834 -2.439533 1.990970 -0.069577 -2.000746 75.740082 10.375973 -1.777117 -4.217845 14.413577 18.087580 20.726013 -7.963686 4.526165 8.856137 -9.774159 14.294434 -3.627630 21.582781 1.316703 -2.390188 -8.908019 -4.900514 -6.661852 -3.375426 2.337890 4.871002 15.026159 1.617671 -3.670790 -16.909849 -13.309018 
0.860207 47.238251 -2.850909 -0.420147 -1.874960 -2.435621 -0.000000 -0.000002 -0.000000 -0.537382 1.826094 -14.016101 -4.398544 9.669240 18.395706 -0.954937 -15.993991 -0.145955 -2.000757 -0.069240 1.990978 -73.713913 -11.514520 9.489573 0.860425 10.815045 -11.492968 -20.821571 8.144082 -0.542558 1.990970 -0.069577 -2.000746 75.704369 11.043365 -0.975089 -3.504231 14.599644 15.239355 21.097752 -7.748145 3.646633 9.307576 -8.217607 14.285556 -3.710669 22.480915 1.338368 -2.465578 -9.535821 -5.044042 -6.256539 -1.599794 2.386082 4.937581 15.313762 1.586097 -3.847590 -17.201307 -13.073251 
0.882630 47.221115 -2.898698 -0.635665 -3.046709 -2.631443 -0.000000 -0.000002 -0.000000 -0.693460 0.976489 -14.255876 -3.828304 8.204556 18.700783 -0.954937 -15.993991 -0.145955 -2.000757 -0.069240 1.990978 -73.053955 -11.422566 10.214183 0.833013 10.824585 -11.234803 -21.051798 7.919800 0.404242 1.990970 -0.069577 -2.000746 75.503342 11.454997 0.219211 -2.918910 14.734921 12.881415 21.277340 -7.644364 3.212188 9.407764 -6.924736 14.169935 -3.775287 22.778000 1.360140 -2.379283 -10.004661 -4.973303 -6.203064 -0.561910 2.394624 5.069383 15.765107 1.563282 -3.825265 -17.575260 -12.782004 
0.891573 47.191917 -2.919424 -0.743634 -3.573925 -2.946749 -0.000000 -0.000002 -0.000000 -0.556778 1.279237 -14.313886 -3.592919 7.212505 18.976460 -0.954937 -15.993991 -0.145955 -2.000757 -0.069240 1.990978 -72.503227 -11.423613 10.184310 0.842225 10.813942 -11.294082 -21.145142 7.821652 0.808308 1.990970 -0.069577 -2.000746 75.093437 11.543182 2.362257 -2.329515 14.846647 10.490482 21.357237 -7.596439 3.024641 9.640588 -6.284492 14.154845 -3.858714 23.219957 1.366844 -2.284682 -10.339117 -4.718224 -6.208160 -0.174175 2.493045 5.289999 16.404722 1.513346 -3.868117 -17.888374 -12.442633 
